<svg id="Capa_1" data-name="Capa 1" xmlns="http://www.w3.org/2000/svg" viewBox="0 0 1235 1160.78"><defs><style>.cls-1{fill:#c4c4c4;}.cls-2{fill:#68cf79;}</style></defs><title>estralla1-5</title><path class="cls-1" d="M1025.3,461.8l-235.6-.3-16.4-50c-9-27.5-27.2-82.6-40.3-122.5s-38.3-116.6-56-170.5-32.5-98.3-32.9-98.7c-.07-.09-.28.27-.6,1V907.25l.5-.35,76.2,54.8c244.7,175.8,305.3,219.1,305.6,218.8s-4.6-15.3-10.6-33.7-21.6-65.5-34.6-104.8c-51.1-155.6-71.2-216.8-81.1-247C885,751,881,738.7,881,737.5c0-.6,85.5-62.3,190-137.3s190-136.8,190-137.3S1170.1,461.9,1025.3,461.8Z" transform="translate(-26 -19.79)"/><path class="cls-2" d="M632.7,51.8c-6,18-16.1,48.9-22.7,68.7S586.7,191.4,572.7,234,536,345.4,522.4,386.7L497.6,462H261.8c-129.7,0-235.8.3-235.8.7s17,13,37.8,27.9,105.7,75.8,188.7,135.3S404.3,735,405.3,735.9c2,1.9,5.5-9.4-42,134.6-18.7,57-34.4,104.7-62.8,191-14.1,42.9-28.6,86.9-32.2,97.8s-6.3,20.1-6,20.4c.7.6-23.6,18,191.2-136.2C554.7,970.9,639,910.4,640.7,909.2l2.8-2V20.8C641.93,24.34,637.59,36.79,632.7,51.8Z" transform="translate(-26 -19.79)"/></svg>